<svg xmlns="http://www.w3.org/2000/svg" width="1908" height="1834" viewBox="0 0 1908 1834" version="1.1">
	<path d="M 933 1.096 C 901.750 4.581, 871.838 14.845, 846.073 30.924 C 836.311 37.016, 86.486 581.817, 74.304 591.669 C 35.200 623.294, 8.536 672.485, 2.047 724.974 C -0.508 745.647, 1.321 775.570, 6.420 796.500 C 8.379 804.541, 282.478 1650.380, 297.098 1693.500 C 323.576 1771.590, 390.372 1824.712, 472.502 1832.994 C 480.435 1833.794, 616.712 1834.016, 961.500 1833.791 C 1415.059 1833.496, 1439.985 1833.388, 1448.986 1831.697 C 1476.903 1826.452, 1498.011 1818.871, 1520 1806.191 C 1546.177 1791.097, 1571.196 1767.391, 1588.275 1741.500 C 1595.384 1730.723, 1604.532 1712.703, 1608.836 1701 C 1610.556 1696.325, 1635.326 1620.500, 1663.882 1532.500 C 1692.437 1444.500, 1757.221 1244.925, 1807.846 1089 C 1858.470 933.075, 1900.828 801.774, 1901.974 797.220 C 1910.919 761.676, 1909.238 719.898, 1897.427 684.244 C 1890.403 663.041, 1876.452 637.540, 1862.277 620 C 1854.405 610.258, 1836.518 592.962, 1827 585.890 C 1795.673 562.610, 1070.608 36.375, 1063.549 31.795 C 1026.725 7.903, 976.939 -3.805, 933 1.096 M 938.500 372.421 C 918.033 377.161, 901.715 387.732, 890.410 403.574 C 887.811 407.215, 861.543 459.283, 828.544 526.201 C 797.002 590.166, 769.337 645.895, 767.065 650.044 C 759.494 663.874, 750.735 672.896, 736.657 681.366 C 724.453 688.709, 724.400 688.719, 581.437 709.489 C 500.322 721.273, 444.551 729.814, 440.387 731.090 C 427.207 735.127, 418.372 740.541, 407.965 750.957 C 397.740 761.191, 393.016 768.723, 388.507 781.980 C 380.479 805.583, 384.229 831.553, 398.567 851.646 C 401.391 855.603, 440.535 894.542, 500.981 953.523 C 554.796 1006.032, 600.392 1051.133, 602.307 1053.747 C 613.025 1068.379, 619.024 1088.478, 617.719 1105.382 C 617.417 1109.297, 607.006 1171.742, 594.585 1244.150 C 569.937 1387.827, 570.193 1385.858, 574.040 1402 C 584.665 1446.589, 632.062 1473.114, 675.222 1458.625 C 679.360 1457.236, 735.086 1428.549, 803.122 1392.783 C 883.163 1350.707, 926.179 1328.632, 931.095 1327.110 C 936.223 1325.522, 942.104 1324.649, 950.220 1324.272 C 962.711 1323.692, 970.019 1324.651, 980.500 1328.246 C 983.800 1329.377, 1040.390 1358.631, 1106.256 1393.253 C 1172.122 1427.875, 1229.126 1457.256, 1232.930 1458.543 C 1261.883 1468.339, 1293.550 1460.121, 1315.170 1437.202 C 1327.021 1424.640, 1333.808 1410.190, 1335.932 1393 C 1337.504 1380.270, 1339.442 1392.819, 1305.814 1198 C 1292.613 1121.526, 1290.718 1109.177, 1290.773 1100 C 1290.876 1082.676, 1296.264 1066.875, 1306.711 1053.259 C 1309.345 1049.826, 1354.250 1005.421, 1406.500 954.580 C 1458.750 903.740, 1503.857 859.299, 1506.738 855.822 C 1513.615 847.522, 1519.429 835.649, 1522.075 824.500 C 1523.837 817.077, 1524.125 813.485, 1523.716 804 C 1523.121 790.168, 1521.418 783.396, 1515.545 771.500 C 1505.594 751.343, 1488.060 736.562, 1467 730.577 C 1463.975 729.718, 1402.550 720.466, 1330.500 710.017 C 1258.450 699.569, 1196.304 690.325, 1192.398 689.475 C 1174.366 685.551, 1154.804 671.768, 1144.740 655.894 C 1142.858 652.927, 1119.589 606.400, 1093.029 552.500 C 1025.499 415.454, 1020.943 406.503, 1015.205 399.600 C 1005.225 387.593, 991.008 378.309, 975.973 373.978 C 966.349 371.206, 947.185 370.410, 938.500 372.421" stroke="none" fill="black" fill-rule="evenodd"/>
</svg>