<svg xmlns="http://www.w3.org/2000/svg" width="2535" height="2305" viewBox="0 0 2535 2305" version="1.1">
	<path d="M 808 1.681 C 749.577 6.147, 685.291 25.145, 646.083 49.532 C 602.184 76.836, 572.384 124.331, 565.938 177.267 C 564.211 191.447, 565.202 218.719, 567.941 232.379 C 573.906 262.132, 587.550 290.355, 606.675 312.500 C 610.475 316.900, 686.938 390.925, 776.594 477 C 866.249 563.075, 1101.355 788.778, 1299.052 978.561 C 1496.748 1168.345, 1744.675 1406.366, 1850 1507.498 C 1955.325 1608.629, 2045.100 1694.241, 2049.500 1697.747 C 2071.874 1715.573, 2097.425 1727.242, 2127 1733.140 C 2136.643 1735.064, 2141.729 1735.438, 2158.500 1735.460 C 2180.005 1735.488, 2186.322 1734.730, 2204.774 1729.907 C 2244.544 1719.512, 2280.719 1694.183, 2303.900 1660.500 C 2307.713 1654.959, 2389.869 1513.211, 2474.299 1366.500 C 2493.629 1332.911, 2503.770 1310.986, 2513.517 1281.714 C 2522.604 1254.423, 2528.641 1227.191, 2532.187 1197.500 C 2534.247 1180.244, 2533.933 1122.284, 2531.680 1104 C 2526 1057.905, 2512.161 1012.046, 2491.544 971 C 2487.539 963.025, 2432.168 866.275, 2368.499 756 C 2304.829 645.725, 2244.178 540.650, 2233.718 522.500 C 2115.640 317.609, 2042.371 191.434, 2035.465 181.089 C 1974.444 89.686, 1876.497 25.876, 1768.217 6.983 C 1734.738 1.141, 1775.499 1.595, 1272.500 1.460 C 1019.500 1.392, 810.475 1.492, 808 1.681 M 200.768 844.042 C 151.161 849.228, 105.786 874.715, 76.787 913.680 C 67.888 925.636, 51.465 953.787, 41.387 974.357 C 20.799 1016.377, 8.412 1059.131, 2.374 1109.010 C 0.170 1127.222, -0.133 1173.501, 1.832 1192 C 7.146 1242.051, 19.761 1286.711, 40.951 1330.500 C 47.624 1344.289, 132.998 1492.641, 450.697 2042.500 C 493.175 2116.019, 496.059 2120.788, 507.667 2136.724 C 547.561 2191.490, 600.987 2236.176, 660.607 2264.641 C 702.245 2284.521, 744.238 2296.678, 792 2302.678 C 805.838 2304.417, 827.466 2304.500, 1266 2304.500 C 1703.181 2304.500, 1726.227 2304.412, 1740.462 2302.691 C 1808.928 2294.411, 1869.028 2272.671, 1923 2236.661 C 1967.316 2207.093, 2006.584 2167.934, 2035.473 2124.500 C 2047.450 2106.493, 2089.231 2034.094, 2094.048 2023 C 2099.250 2011.020, 2104.509 1994.143, 2106.512 1983 C 2109.103 1968.590, 2109.617 1941.133, 2107.560 1927 C 2099.696 1872.978, 2069.935 1827.828, 2024 1800.235 C 2019.325 1797.427, 1966 1768.270, 1905.500 1735.442 C 1845 1702.614, 1685.700 1616.120, 1551.500 1543.233 C 1417.300 1470.347, 1106.125 1301.360, 860 1167.709 C 613.875 1034.057, 385.403 909.987, 352.284 891.998 C 317.705 873.216, 287.903 857.689, 282.284 855.529 C 270.869 851.140, 253.749 846.628, 242.662 845.086 C 231.278 843.502, 210.808 842.992, 200.768 844.042" stroke="none" fill="black" fill-rule="evenodd"/>
</svg>